<svg xmlns="http://www.w3.org/2000/svg" width="105" height="142" viewBox="0 0 105 142">
  <defs>
    <linearGradient id="ic-twitter-a" x1="50%" x2="50%" y1="0%" y2="100%">
      <stop offset="0%" stop-color="#F37125"/>
      <stop offset="100%" stop-color="#0A59A2"/>
    </linearGradient>
  </defs>
  <path fill="none" stroke="url(#ic-twitter-a)" stroke-linecap="round" stroke-linejoin="round" d="M0,18.2608696 C0,8.18086957 8.18086957,0 18.2608696,0 C28.3408696,0 36.5217391,8.18086957 36.5217391,18.2608696 L36.5217391,30.4347826 L85.2173913,30.4347826 C95.2973913,30.4347826 103.478261,38.6156522 103.478261,48.6956522 C103.478261,58.7817391 95.2973913,66.9565217 85.2173913,66.9565217 L36.5217391,66.9565217 L36.5217391,85.2173913 C36.5217391,95.3034783 44.7026087,103.478261 54.7826087,103.478261 L85.2173913,103.478261 C95.2973913,103.478261 103.478261,111.65913 103.478261,121.73913 C103.478261,131.825217 95.2973913,140 85.2173913,140 L48.6956522,140 C21.8034783,140 0,118.202609 0,91.3043478 L0,18.2608696 Z" transform="translate(1 1)"/>
</svg>
