<svg xmlns="http://www.w3.org/2000/svg" width="747" height="280" viewBox="0 0 747 280">
  <defs>
    <linearGradient id="ics-agrupado-a" x1="50%" x2="50%" y1="0%" y2="100%">
      <stop offset="0%" stop-color="#F37125"/>
      <stop offset="100%" stop-color="#0A59A2"/>
    </linearGradient>
  </defs>
  <g fill="none" fill-rule="evenodd" transform="translate(1 1)">
    <g stroke="#5D5D5D" stroke-linejoin="round" transform="translate(174 88)">
      <path stroke-linecap="round" d="M26.257,49 L5.25,49 C2.352,49 0,46.648 0,43.75 L0,5.25 C0,2.352 2.352,0 5.25,0 L68.25,0 C71.148,0 73.5,2.352 73.5,5.25 L73.5,26.474"/>
      <polyline stroke-linecap="round" points="71.75 1.75 36.75 29.75 1.75 1.75"/>
      <polygon points="59.5 59.5 59.5 70 80.5 50.75 59.5 31.5 59.5 42 35 42 35 59.5"/>
    </g>
    <g stroke="#565656" stroke-linecap="round" stroke-linejoin="round" transform="translate(147 4)">
      <path d="M63.3333333,35 C63.3333333,37.76 61.0933333,40 58.3333333,40 L5,40 C2.24,40 0,37.76 0,35 L0,5 C0,2.24 2.24,0 5,0 L58.3333333,0 C61.0933333,0 63.3333333,2.24 63.3333333,5 L63.3333333,35 Z"/>
      <polyline points="61.875 1.528 31.665 25.002 1.458 1.458"/>
    </g>
    <g stroke="#565656" stroke-linecap="round" stroke-linejoin="round" transform="translate(27 108)">
      <path d="M15.8333333,8.75 C15.8333333,9.44 15.2733333,10 14.5833333,10 L1.25,10 C0.56,10 0,9.44 0,8.75 L0,1.25 C0,0.56 0.56,0 1.25,0 L14.5833333,0 C15.2733333,0 15.8333333,0.56 15.8333333,1.25 L15.8333333,8.75 Z"/>
      <polyline points="15.469 .382 7.916 6.25 .365 .365"/>
    </g>
    <g stroke="#565656" stroke-linecap="round" stroke-linejoin="round" transform="translate(107 60)">
      <path d="M15.8333333,8.75 C15.8333333,9.44 15.2733333,10 14.5833333,10 L1.25,10 C0.56,10 0,9.44 0,8.75 L0,1.25 C0,0.56 0.56,0 1.25,0 L14.5833333,0 C15.2733333,0 15.8333333,0.56 15.8333333,1.25 L15.8333333,8.75 Z"/>
      <polyline points="15.469 .382 7.916 6.25 .365 .365"/>
    </g>
    <g stroke="#565656" stroke-linecap="round" stroke-linejoin="round" transform="translate(147 108)">
      <path d="M15.8333333,8.75 C15.8333333,9.44 15.2733333,10 14.5833333,10 L1.25,10 C0.56,10 0,9.44 0,8.75 L0,1.25 C0,0.56 0.56,0 1.25,0 L14.5833333,0 C15.2733333,0 15.8333333,0.56 15.8333333,1.25 L15.8333333,8.75 Z"/>
      <polyline points="15.469 .382 7.916 6.25 .365 .365"/>
    </g>
    <g stroke="#565656" stroke-linecap="round" stroke-linejoin="round" transform="translate(235 35)">
      <path d="M15.8333333,8.75 C15.8333333,9.44 15.2733333,10 14.5833333,10 L1.25,10 C0.56,10 0,9.44 0,8.75 L0,1.25 C0,0.56 0.56,0 1.25,0 L14.5833333,0 C15.2733333,0 15.8333333,0.56 15.8333333,1.25 L15.8333333,8.75 Z"/>
      <polyline points="15.469 .382 7.916 6.25 .365 .365"/>
    </g>
    <g stroke="#565656" stroke-linecap="round" stroke-linejoin="round" transform="translate(115 228)">
      <path d="M15.8333333,8.75 C15.8333333,9.44 15.2733333,10 14.5833333,10 L1.25,10 C0.56,10 0,9.44 0,8.75 L0,1.25 C0,0.56 0.56,0 1.25,0 L14.5833333,0 C15.2733333,0 15.8333333,0.56 15.8333333,1.25 L15.8333333,8.75 Z"/>
      <polyline points="15.469 .382 7.916 6.25 .365 .365"/>
    </g>
    <g stroke="#565656" stroke-linecap="round" stroke-linejoin="round" transform="translate(27 220)">
      <path d="M15.8333333,8.75 C15.8333333,9.44 15.2733333,10 14.5833333,10 L1.25,10 C0.56,10 0,9.44 0,8.75 L0,1.25 C0,0.56 0.56,0 1.25,0 L14.5833333,0 C15.2733333,0 15.8333333,0.56 15.8333333,1.25 L15.8333333,8.75 Z"/>
      <polyline points="15.469 .382 7.916 6.25 .365 .365"/>
    </g>
    <g stroke="#565656" stroke-linecap="round" stroke-linejoin="round" transform="translate(0 152)">
      <path d="M47.5,26.25 C47.5,28.32 45.82,30 43.75,30 L3.75,30 C1.68,30 0,28.32 0,26.25 L0,3.75 C0,1.68 1.68,0 3.75,0 L43.75,0 C45.82,0 47.5,1.68 47.5,3.75 L47.5,26.25 Z"/>
      <polyline points="46.406 1.146 23.749 18.751 1.094 1.094"/>
    </g>
    <g stroke="#565656" stroke-linecap="round" stroke-linejoin="round" transform="translate(134 164)">
      <path d="M63.3333333,35 C63.3333333,37.76 61.0933333,40 58.3333333,40 L5,40 C2.24,40 0,37.76 0,35 L0,5 C0,2.24 2.24,0 5,0 L58.3333333,0 C61.0933333,0 63.3333333,2.24 63.3333333,5 L63.3333333,35 Z"/>
      <polyline points="61.875 1.528 31.665 25.002 1.458 1.458"/>
    </g>
    <g stroke="#565656" stroke-linecap="round" stroke-linejoin="round" transform="translate(62 249)">
      <path d="M31.6666667,17.5 C31.6666667,18.88 30.5466667,20 29.1666667,20 L2.5,20 C1.12,20 0,18.88 0,17.5 L0,2.5 C0,1.12 1.12,0 2.5,0 L29.1666667,0 C30.5466667,0 31.6666667,1.12 31.6666667,2.5 L31.6666667,17.5 Z"/>
      <polyline points="30.938 .764 15.832 12.501 .729 .729"/>
    </g>
    <g stroke="#565656" stroke-linecap="round" stroke-linejoin="round" transform="translate(78 175)">
      <path d="M31.6666667,17.5 C31.6666667,18.88 30.5466667,20 29.1666667,20 L2.5,20 C1.12,20 0,18.88 0,17.5 L0,2.5 C0,1.12 1.12,0 2.5,0 L29.1666667,0 C30.5466667,0 31.6666667,1.12 31.6666667,2.5 L31.6666667,17.5 Z"/>
      <polyline points="30.938 .764 15.832 12.501 .729 .729"/>
    </g>
    <g stroke="#565656" stroke-linecap="round" stroke-linejoin="round" transform="translate(46 44)">
      <path d="M31.6666667,17.5 C31.6666667,18.88 30.5466667,20 29.1666667,20 L2.5,20 C1.12,20 0,18.88 0,17.5 L0,2.5 C0,1.12 1.12,0 2.5,0 L29.1666667,0 C30.5466667,0 31.6666667,1.12 31.6666667,2.5 L31.6666667,17.5 Z"/>
      <polyline points="30.938 .764 15.832 12.501 .729 .729"/>
    </g>
    <g stroke="#565656" stroke-linecap="round" stroke-linejoin="round" transform="translate(78 99)">
      <path d="M47.5,26.25 C47.5,28.32 45.82,30 43.75,30 L3.75,30 C1.68,30 0,28.32 0,26.25 L0,3.75 C0,1.68 1.68,0 3.75,0 L43.75,0 C45.82,0 47.5,1.68 47.5,3.75 L47.5,26.25 Z"/>
      <polyline points="46.406 1.146 23.749 18.751 1.094 1.094"/>
    </g>
    <g stroke="url(#ics-agrupado-a)" stroke-linecap="round" stroke-linejoin="round" transform="translate(664 198)">
      <path d="M40 66.084936C34.7826087 66.084936 31.3043478 79.9979795 31.3043478 79.9979795L48.6956522 79.9979795C48.6956522 79.9979795 45.2173913 66.084936 40 66.084936zM40 55.6501534C37.4608696 55.6501534 33.0434783 53.7127621 31.3043478 51.9736317L31.3043478 48.4953708 29.1478261 49.6953708C26.5669565 50.9475447 23.7669565 54.1997186 22.8591304 56.9197186L19.266087 67.6258056 40 55.6501534z"/>
      <path d="M55.4365217,53.7138056 C64.1321739,57.1920664 73.5791304,60.0511969 76.306087,64.1485882 C79.7843478,69.3659795 80,79.999023 80,79.999023 L0,79.999023 C0,79.999023 0.215652174,69.3659795 3.69391304,64.1485882 C6.42086957,60.0511969 15.8678261,57.1920664 24.5634783,53.7138056"/>
      <path d="M40,55.6501534 C42.5356522,55.6501534 46.9565217,53.7127621 48.6956522,51.9736317 L48.6956522,48.4953708 L50.8521739,49.6953708 C53.4330435,50.9475447 56.2330435,54.1997186 57.1408696,56.9197186 L60.733913,67.6258056 L40,55.6501534 Z"/>
      <path d="M34.7826087 58.6626751L34.7826087 60.8678925C34.7826087 63.7478925 37.1165217 66.0852838 40 66.0852838 42.88 66.0852838 45.2173913 63.7478925 45.2173913 60.8678925L45.2173913 58.6626751M48.6956522 51.9746751L48.6956522 41.5398925C48.6956522 41.5398925 54.0208696 38.0616317 54.0208696 31.1051099 55.76 31.1051099 57.5513043 24.1485882 54.0730435 22.4094577 54.0730435 21.372936 58.7617391 12.6598925 57.5791304 6.75728383 55.84-1.93836835 31.506087-1.93836835 29.7669565 5.01815339 19.3321739 5.01815339 26.2956522 20.9972838 26.2956522 22.4094577 22.8173913 24.1485882 24.4521739 31.1051099 26.1913043 31.1051099 26.1913043 38.0616317 31.3043478 41.5398925 31.3043478 41.5398925L31.3043478 51.9746751"/>
    </g>
    <g stroke="url(#ics-agrupado-a)" stroke-linecap="round" stroke-linejoin="round" transform="translate(545)">
      <path d="M57.0424348,38.2380569 C57.0424348,46.9337091 73.045913,52.1511004 78.2633043,39.9771873 C62.6111304,39.9771873 74.7850435,-13.9358561 40.0024348,3.4554482 C5.21982609,-13.9358561 17.3937391,39.9771873 1.74156522,39.9771873 C6.95895652,52.1511004 22.9937391,46.9337091 22.9937391,38.2380569"/>
      <path d="M40.0010435,53.8902308 C45.2184348,52.1511004 55.6532174,46.9337091 57.3923478,36.4989265 C62.6097391,36.4989265 62.6097391,26.0641439 57.3923478,26.0641439 L55.6532174,19.1076221 C41.7401739,19.1076221 41.7401739,13.8902308 40.0010435,12.1511004 C38.261913,13.8902308 38.261913,19.1076221 24.3488696,19.1076221 L22.6097391,26.0641439 C17.3923478,26.0641439 17.3923478,36.4989265 22.6097391,36.4989265 C24.3488696,46.9337091 34.7836522,52.1511004 40.0010435,53.8902308 Z"/>
      <path d="M48.5947826 49.5253612C64.2469565 56.481883 80 60.8471004 80 73.0210134L80 78.2627525 0 78.2627525 0 73.0210134C0 60.8471004 15.7530435 56.481883 31.4052174 49.5253612M17.3923478 55.6293612C17.3923478 66.0641439 40.0010435 67.8032743 40.0010435 78.2380569M62.6097391 55.6293612C62.6097391 66.0641439 40.0010435 67.8032743 40.0010435 78.2380569M29.5662609 27.8102308C29.5662609 25.8867525 31.1210435 26.0711004 33.0445217 26.0711004 34.968 26.0711004 36.5227826 25.8867525 36.5227826 27.8102308M43.4793043 27.8102308C43.4793043 25.8867525 45.034087 26.0711004 46.9575652 26.0711004 48.8810435 26.0711004 50.4358261 25.8867525 50.4358261 27.8102308"/>
    </g>
    <polygon stroke="#5D5D5D" stroke-linejoin="round" points="431.091 36.818 431.091 45 447.455 30 431.091 15 431.091 23.182 412 23.182 412 36.818"/>
    <polygon stroke="#5D5D5D" stroke-linejoin="round" points="479.091 136.818 479.091 145 495.455 130 479.091 115 479.091 123.182 460 123.182 460 136.818"/>
    <polygon stroke="#5D5D5D" stroke-linejoin="round" points="430.091 239.818 430.091 248 446.455 233 430.091 218 430.091 226.182 411 226.182 411 239.818"/>
    <g stroke="url(#ics-agrupado-a)" stroke-linecap="round" stroke-linejoin="round" transform="translate(665 63)">
      <path d="M29.5641739 31.3113043C29.5641739 29.3878261 31.1189565 29.5721739 33.0424348 29.5721739 34.965913 29.5721739 36.5206957 29.3878261 36.5206957 31.3113043M43.4772174 31.3113043C43.4772174 29.3878261 45.032 29.5721739 46.9554783 29.5721739 48.8789565 29.5721739 50.4337391 29.3878261 50.4337391 31.3113043M31.1130435 52.173913C16.1669565 54.706087 0 54.1843478 0 68.6782609L0 80 80 80 80 68.6782609C80 54.1808696 64.4278261 54.7965217 48.9391304 52.173913"/>
      <path d="M39.9989565,55.6521739 C45.2163478,55.6521739 57.3902609,48.6956522 57.3902609,38.2608696 C62.6076522,38.2608696 62.6076522,27.826087 57.3902609,27.826087 L55.6650435,19.1304348 C45.2024348,19.1304348 41.7589565,17.3913043 40.0198261,15.6521739 C38.2806957,17.3913043 34.7641739,19.1304348 24.3572174,19.1304348 L22.6076522,27.826087 C17.3902609,27.826087 17.3902609,38.2608696 22.6076522,38.2608696 C22.6076522,48.6956522 34.7815652,55.6521739 39.9989565,55.6521739 Z"/>
      <path d="M60.8549565 30.4382609C60.8549565 30.4382609 61.648 27.0434783 62.3993043 15.5686957 62.674087 11.3391304 61.661913 7.12 59.4775652 3.48521739L57.3906087 0 53.2688696 4.12173913C52.5558261 4.83130435 51.568 5.20347826 50.5627826 5.13391304 49.5575652 5.06086957 48.6323478 4.55652174 48.0236522 3.74956522L45.2166957 0 42.781913 3.24869565C42.1245217 4.12173913 41.0914783 4.64 39.9993043 4.64 38.9036522 4.64 37.874087 4.12173913 37.2166957 3.24869565L34.781913 0 31.968 3.74956522C31.3627826 4.55652174 30.4410435 5.06086957 29.4358261 5.13391304 28.4306087 5.20347826 27.4393043 4.83130435 26.7297391 4.12173913L22.608 0 20.514087 3.48521739C18.3262609 7.13391304 17.3210435 11.3252174 17.5993043 15.5686957 18.3471304 27.0434783 19.1958261 30.4382609 19.1958261 30.4382609M22.6076522 53.4104348L28.5241739 66.9269565C30.218087 70.6521739 33.9328696 73.0452174 38.0233043 73.0452174L41.9746087 73.0452174C46.0650435 73.0452174 49.7798261 70.6521739 51.4737391 66.9269565L57.3972174 53.4104348M65.7836522 54.7725217L69.5645217 80.0003478"/>
      <path d="M10.7836522,54.7725217 L14.5645217,80.0003478" transform="matrix(-1 0 0 1 25.348 0)"/>
    </g>
    <g transform="translate(549 145)">
      <path stroke="url(#ics-agrupado-a)" stroke-linecap="round" stroke-linejoin="round" d="M80 78.258811C80 78.258811 78.2608696 64.418811 71.3043478 59.2014197 64.3478261 53.9840284 48.6956522 59.2014197 48.6956522 47.0275067L48.6956522 38.258811C50.4347826 43.4762023 60.8695652 47.0275067 67.826087 38.3318545 57.3913043 38.3318545 67.826087-13.8420586 40 3.54924579 12.173913-13.8420586 22.6086957 38.3318545 12.173913 38.3318545 19.1304348 47.0275067 29.5652174 43.4762023 31.3043478 38.258811L31.3043478 47.0275067C31.3043478 59.2014197 15.6521739 53.9840284 8.69565217 59.2014197 1.73913043 64.418811 0 78.258811 0 78.258811L80 78.258811zM62.1366957 56.400724L46.9575652 78.2581154M17.8633043 56.400724L33.0424348 78.2581154"/>
      <path fill="#0A59A2" d="M33.0431304 55.7217675C32.0831304 55.7217675 31.304 56.500898 31.304 57.460898 31.304 58.420898 32.0831304 59.2000284 33.0431304 59.2000284 34.0031304 59.2000284 34.7822609 58.420898 34.7822609 57.460898 34.7822609 56.500898 34.0031304 55.7217675 33.0431304 55.7217675M39.9996522 57.460898C39.0396522 57.460898 38.2605217 58.2400284 38.2605217 59.2000284 38.2605217 60.1600284 39.0396522 60.9391588 39.9996522 60.9391588 40.9596522 60.9391588 41.7387826 60.1600284 41.7387826 59.2000284 41.7387826 58.2400284 40.9596522 57.460898 39.9996522 57.460898M46.9561739 55.7217675C45.9961739 55.7217675 45.2170435 56.500898 45.2170435 57.460898 45.2170435 58.420898 45.9961739 59.2000284 46.9561739 59.2000284 47.9161739 59.2000284 48.6953043 58.420898 48.6953043 57.460898 48.6953043 56.500898 47.9161739 55.7217675 46.9561739 55.7217675"/>
      <path stroke="url(#ics-agrupado-a)" stroke-linecap="round" stroke-linejoin="round" d="M31.3043478 38.2591588C31.3043478 38.2591588 26.0834783 36.3878545 27.8226087 24.0122023M29.5652174 19.1996806C29.5652174 20.938811 27.826087 26.1562023 24.3478261 26.1562023M48.6956522 38.2591588C48.6956522 38.2591588 53.9165217 36.3878545 52.1773913 24.0122023M50.4347826 19.1996806C50.4347826 20.938811 52.173913 26.1562023 55.6521739 26.1562023"/>
    </g>
    <g transform="translate(332 1)">
      <path stroke="#5D5D5D" stroke-linecap="round" stroke-linejoin="round" d="M54.2885714 11.4285714C54.2885714 17.7428571 42.1314286 22.8571429 27.1457143 22.8571429 12.1571429 22.8571429.00285714286 17.7428571.00285714286 11.4285714.00285714286 5.12 12.1571429 0 27.1457143 0 42.1314286 0 54.2885714 5.12 54.2885714 11.4285714zM54.2857143 22.8571429C54.2857143 29.1714286 42.1314286 34.2857143 27.1428571 34.2857143 12.1542857 34.2857143 0 29.1714286 0 22.8571429M54.2857143 35.7142857C54.2857143 42.0285714 42.1314286 47.1428571 27.1428571 47.1428571 12.1542857 47.1428571 0 42.0285714 0 35.7142857"/>
      <path stroke="#5D5D5D" stroke-linecap="round" stroke-linejoin="round" d="M0,11.4285714 L0,48.5714286 C0,54.8857143 12.1542857,60 27.1428571,60 C42.1314286,60 54.2857143,54.8857143 54.2857143,48.5714286 L54.2857143,11.4285714"/>
      <text fill="#5D5D5D" font-family="Lato-Regular, Lato" font-size="12">
        <tspan x="23.295" y="15.5">A</tspan>
      </text>
    </g>
    <g transform="translate(371 90)">
      <path stroke="#5D5D5D" stroke-linecap="round" stroke-linejoin="round" d="M72.3847619 15.2380952C72.3847619 23.6571429 56.1752381 30.4761905 36.1942857 30.4761905 16.2095238 30.4761905.00380952381 23.6571429.00380952381 15.2380952.00380952381 6.82666667 16.2095238 0 36.1942857 0 56.1752381 0 72.3847619 6.82666667 72.3847619 15.2380952zM72.3809524 30.4761905C72.3809524 38.8952381 56.1752381 45.7142857 36.1904762 45.7142857 16.2057143 45.7142857 0 38.8952381 0 30.4761905M72.3809524 47.6190476C72.3809524 56.0380952 56.1752381 62.8571429 36.1904762 62.8571429 16.2057143 62.8571429 0 56.0380952 0 47.6190476"/>
      <path stroke="#5D5D5D" stroke-linecap="round" stroke-linejoin="round" d="M0,15.2380952 L0,64.7619048 C0,73.1809524 16.2057143,80 36.1904762,80 C56.1752381,80 72.3809524,73.1809524 72.3809524,64.7619048 L72.3809524,15.2380952"/>
      <text fill="#5D5D5D" font-family="Lato-Regular, Lato" font-size="14">
        <tspan x="31.971" y="20">B</tspan>
      </text>
    </g>
    <g transform="translate(332 204)">
      <path stroke="#5D5D5D" stroke-linecap="round" stroke-linejoin="round" d="M54.2885714 11.4285714C54.2885714 17.7428571 42.1314286 22.8571429 27.1457143 22.8571429 12.1571429 22.8571429.00285714286 17.7428571.00285714286 11.4285714.00285714286 5.12 12.1571429 0 27.1457143 0 42.1314286 0 54.2885714 5.12 54.2885714 11.4285714zM54.2857143 22.8571429C54.2857143 29.1714286 42.1314286 34.2857143 27.1428571 34.2857143 12.1542857 34.2857143 0 29.1714286 0 22.8571429M54.2857143 35.7142857C54.2857143 42.0285714 42.1314286 47.1428571 27.1428571 47.1428571 12.1542857 47.1428571 0 42.0285714 0 35.7142857"/>
      <path stroke="#5D5D5D" stroke-linecap="round" stroke-linejoin="round" d="M0,11.4285714 L0,48.5714286 C0,54.8857143 12.1542857,60 27.1428571,60 C42.1314286,60 54.2857143,54.8857143 54.2857143,48.5714286 L54.2857143,11.4285714"/>
      <text fill="#5D5D5D" font-family="Lato-Regular, Lato" font-size="12">
        <tspan x="23.265" y="15.5">C</tspan>
      </text>
    </g>
  </g>
</svg>
