<svg xmlns="http://www.w3.org/2000/svg" width="393" height="64" viewBox="0 0 393 64">
  <g fill="none" fill-rule="evenodd">
    <path fill="#FFF" d="M13.7304688,36.9765625 C15.0520899,33.6158686 16.3453713,30.6989056 17.6103516,28.2255859 L30.4960938,2.59570312 L37.6894531,2.59570312 L16.0527344,44 L8.74609375,44 L4.66796875,2.59570312 L11.2382812,2.59570312 L13.3339844,28.2255859 C13.5039071,30.1702571 13.6077472,32.3697794 13.6455078,34.8242188 L13.6171875,36.9765625 L13.7304688,36.9765625 Z M41.7392578,4.97460938 C41.7392578,3.69074879 42.1074182,2.65234771 42.84375,1.859375 C43.5800818,1.06640229 44.6184829,0.669921875 45.9589844,0.669921875 C46.9596404,0.669921875 47.7714813,0.920082134 48.3945312,1.42041016 C49.0175812,1.92073818 49.3291016,2.68065896 49.3291016,3.70019531 C49.3291016,5.04069681 48.9515012,6.0979779 48.1962891,6.87207031 C47.441077,7.64616272 46.4498759,8.03320312 45.2226562,8.03320312 C44.2220002,8.03320312 43.3912793,7.78776287 42.7304688,7.296875 C42.0696582,6.80598713 41.7392578,6.03190633 41.7392578,4.97460938 Z M40.4082031,44 L33.7246094,44 L40.4082031,12.6777344 L47.0634766,12.6777344 L40.4082031,44 Z M59.6376953,44.5664062 C56.9755726,44.5664062 54.8704504,43.6082453 53.3222656,41.6918945 C51.7740808,39.7755438 51,37.080421 51,33.6064453 C51,29.7926242 51.6560807,26.2243005 52.9682617,22.9013672 C54.2804428,19.5784339 56.0882046,16.9493912 58.3916016,15.0141602 C60.6949985,13.0789291 63.2249211,12.1113281 65.9814453,12.1113281 C67.8128347,12.1113281 69.3893163,12.5408486 70.7109375,13.3999023 C72.0325587,14.2589561 73.0615198,15.5097574 73.7978516,17.1523438 L74.0810547,17.1523438 L75.8369141,12.6777344 L80.9345703,12.6777344 L74.2509766,44 L69.0966797,44 L69.6914062,39.015625 L69.5214844,39.015625 C66.5383965,42.7161643 63.2438331,44.5664062 59.6376953,44.5664062 Z M62.0732422,39.1855469 C63.621427,39.1855469 65.1412686,38.4539461 66.6328125,36.9907227 C68.1243564,35.5274992 69.3515577,33.5686972 70.3144531,31.1142578 C71.2773486,28.6598185 71.7587891,25.9788557 71.7587891,23.0712891 C71.7587891,21.4098224 71.3151086,20.074061 70.4277344,19.0639648 C69.5403601,18.0538686 68.3792389,17.5488281 66.9443359,17.5488281 C65.3395102,17.5488281 63.8291086,18.2757089 62.4130859,19.7294922 C60.9970632,21.1832755 59.8642621,23.1609575 59.0146484,25.6625977 C58.1650348,28.1642378 57.7402344,30.7555204 57.7402344,33.4365234 C57.7402344,35.3623143 58.1225548,36.8019158 58.887207,37.7553711 C59.6518593,38.7088264 60.7138604,39.1855469 62.0732422,39.1855469 Z M111.322266,36.9765625 C112.643887,33.6158686 113.937168,30.6989056 115.202148,28.2255859 L128.087891,2.59570312 L135.28125,2.59570312 L113.644531,44 L106.337891,44 L102.259766,2.59570312 L108.830078,2.59570312 L110.925781,28.2255859 C111.095704,30.1702571 111.199544,32.3697794 111.237305,34.8242188 L111.208984,36.9765625 L111.322266,36.9765625 Z M141.285156,44.5664062 C138.623034,44.5664062 136.517911,43.6082453 134.969727,41.6918945 C133.421542,39.7755438 132.647461,37.080421 132.647461,33.6064453 C132.647461,29.7926242 133.303542,26.2243005 134.615723,22.9013672 C135.927904,19.5784339 137.735666,16.9493912 140.039062,15.0141602 C142.342459,13.0789291 144.872382,12.1113281 147.628906,12.1113281 C149.460296,12.1113281 151.036777,12.5408486 152.358398,13.3999023 C153.68002,14.2589561 154.708981,15.5097574 155.445312,17.1523438 L155.728516,17.1523438 L157.484375,12.6777344 L162.582031,12.6777344 L155.898437,44 L150.744141,44 L151.338867,39.015625 L151.168945,39.015625 C148.185857,42.7161643 144.891294,44.5664062 141.285156,44.5664062 Z M143.720703,39.1855469 C145.268888,39.1855469 146.78873,38.4539461 148.280273,36.9907227 C149.771817,35.5274992 150.999019,33.5686972 151.961914,31.1142578 C152.92481,28.6598185 153.40625,25.9788557 153.40625,23.0712891 C153.40625,21.4098224 152.96257,20.074061 152.075195,19.0639648 C151.187821,18.0538686 150.0267,17.5488281 148.591797,17.5488281 C146.986971,17.5488281 145.47657,18.2757089 144.060547,19.7294922 C142.644524,21.1832755 141.511723,23.1609575 140.662109,25.6625977 C139.812496,28.1642378 139.387695,30.7555204 139.387695,33.4365234 C139.387695,35.3623143 139.770016,36.8019158 140.534668,37.7553711 C141.29932,38.7088264 142.361321,39.1855469 143.720703,39.1855469 Z M186.144531,12.1113281 C187.31511,12.1113281 188.334631,12.2246082 189.203125,12.4511719 L187.758789,18.6533203 C186.739253,18.3889961 185.776372,18.2568359 184.870117,18.2568359 C182.491199,18.2568359 180.367197,19.323557 178.498047,21.4570312 C176.628897,23.5905055 175.326176,26.3847483 174.589844,29.8398438 L171.587891,44 L164.904297,44 L171.587891,12.6777344 L176.798828,12.6777344 L176.204102,18.4833984 L176.458984,18.4833984 C178.02605,16.2177621 179.593091,14.5893604 181.160156,13.5981445 C182.727221,12.6069286 184.388663,12.1113281 186.144531,12.1113281 Z M206.053711,17.2089844 C204.241202,17.2089844 202.53728,18.0208252 200.941895,19.6445312 C199.346509,21.2682373 198.199548,23.4111195 197.500977,26.0732422 L198.322266,26.0732422 C201.871763,26.0732422 204.647125,25.5682017 206.648437,24.5581055 C208.64975,23.5480093 209.650391,22.1178478 209.650391,20.2675781 C209.650391,19.3046827 209.34831,18.5542019 208.744141,18.0161133 C208.139971,17.4780247 207.24317,17.2089844 206.053711,17.2089844 Z M201.749023,44.5664062 C198.029604,44.5664062 195.126801,43.5185652 193.040527,41.4228516 C190.954254,39.327138 189.911133,36.4007349 189.911133,32.6435547 C189.911133,28.9052547 190.642734,25.4266111 192.105957,22.2075195 C193.56918,18.9884279 195.551583,16.5009853 198.053223,14.7451172 C200.554863,12.989249 203.353826,12.1113281 206.450195,12.1113281 C209.489924,12.1113281 211.854646,12.7957288 213.544434,14.1645508 C215.234221,15.5333727 216.079102,17.4732947 216.079102,19.984375 C216.079102,23.4205901 214.50734,26.1062729 211.36377,28.0415039 C208.220199,29.9767349 203.740914,30.9443359 197.925781,30.9443359 L196.708008,30.9443359 L196.651367,31.8222656 L196.651367,32.6435547 C196.651367,34.7392683 197.184728,36.38183 198.251465,37.5712891 C199.318202,38.7607481 200.908844,39.3554688 203.023437,39.3554688 C204.382819,39.3554688 205.732741,39.1761086 207.073242,38.8173828 C208.413744,38.4586571 209.999665,37.8450564 211.831055,36.9765625 L211.831055,42.2724609 C210.018546,43.1031943 208.352384,43.6931949 206.83252,44.0424805 C205.312655,44.3917661 203.618173,44.5664062 201.749023,44.5664062 Z M214.493164,57.9335938 C212.793937,57.9335938 211.387375,57.7164735 210.273437,57.2822266 L210.273437,51.9013672 C211.481777,52.2789732 212.586258,52.4677734 213.586914,52.4677734 C216.060234,52.4677734 217.665035,50.7119316 218.401367,47.2001953 L225.764648,12.6777344 L232.363281,12.6777344 L224.830078,47.9931641 C224.112627,51.4104989 222.909025,53.9215415 221.219238,55.5263672 C219.529451,57.1311929 217.287449,57.9335938 214.493164,57.9335938 Z M227.095703,4.97460938 C227.095703,3.69074879 227.454423,2.65234771 228.171875,1.859375 C228.889327,1.06640229 229.918288,0.669921875 231.258789,0.669921875 C232.278325,0.669921875 233.094886,0.920082134 233.708496,1.42041016 C234.322106,1.92073818 234.628906,2.68065896 234.628906,3.70019531 C234.628906,5.04069681 234.251306,6.0979779 233.496094,6.87207031 C232.740882,7.64616272 231.749681,8.03320312 230.522461,8.03320312 C229.521805,8.03320312 228.700524,7.79248288 228.058594,7.31103516 C227.416663,6.82958744 227.095703,6.05078663 227.095703,4.97460938 Z M257.483398,24.1191406 C257.483398,22.0989482 257.020838,20.5177466 256.095703,19.3754883 C255.170568,18.23323 253.848967,17.6621094 252.130859,17.6621094 C250.374991,17.6621094 248.80323,18.3370701 247.415527,19.6870117 C246.027825,21.0369534 244.951664,22.8683153 244.187012,25.1811523 C243.422359,27.4939894 243.040039,29.962552 243.040039,32.5869141 C243.040039,34.6826277 243.50732,36.2874293 244.441895,37.4013672 C245.37647,38.515305 246.759431,39.0722656 248.59082,39.0722656 C250.290048,39.0722656 251.819329,38.430345 253.178711,37.1464844 C254.538093,35.8626238 255.595374,34.0643019 256.350586,31.7514648 C257.105798,29.4386278 257.483398,26.8945451 257.483398,24.1191406 Z M264.195312,24.4023438 C264.195312,28.2161649 263.506192,31.6853685 262.12793,34.8100586 C260.749668,37.9347487 258.856946,40.3325112 256.449707,42.003418 C254.042468,43.6743248 251.271826,44.5097656 248.137695,44.5097656 C244.512677,44.5097656 241.633474,43.4288845 239.5,41.2670898 C237.366526,39.1052952 236.299805,36.1647321 236.299805,32.4453125 C236.299805,28.6881323 236.974765,25.2425287 238.324707,22.1083984 C239.674649,18.9742682 241.567371,16.5340257 244.00293,14.7875977 C246.438489,13.0411697 249.251612,12.1679688 252.442383,12.1679688 C256.124042,12.1679688 259.003245,13.2630099 261.080078,15.453125 C263.156911,17.6432401 264.195312,20.6262832 264.195312,24.4023438 Z M306.250977,36.2402344 L293.563477,36.2402344 L290.023438,44 L278.525391,44 L299.595703,2.59570312 L313.84082,2.59570312 L317.324219,44 L306.53418,44 L306.250977,36.2402344 Z M297.613281,27.4042969 L305.911133,27.4042969 L305.429688,15.3964844 L305.373047,12.9609375 C305.373047,11.5449148 305.410807,10.3082735 305.486328,9.25097656 C305.033201,10.8746826 304.45736,12.4417242 303.758789,13.9521484 L297.613281,27.4042969 Z M359.011719,18.2568359 C359.011719,23.5433207 358.077158,28.1264454 356.208008,32.0063477 C354.338858,35.8862499 351.624855,38.8551329 348.065918,40.9130859 C344.506981,42.9710389 340.292017,44 335.420898,44 L322.082031,44 L330.833008,2.59570312 L342.614258,2.59570312 C347.825221,2.59570312 351.860826,3.95978454 354.721191,6.68798828 C357.581557,9.41619203 359.011719,13.272436 359.011719,18.2568359 Z M337.091797,34.8242188 C339.16863,34.8242188 341.023592,34.1634181 342.656738,32.8417969 C344.289884,31.5201757 345.559566,29.6368937 346.46582,27.1918945 C347.372075,24.7468953 347.825195,21.9573724 347.825195,18.8232422 C347.825195,16.4632043 347.315435,14.6743225 346.295898,13.456543 C345.276362,12.2387634 343.850921,11.6298828 342.019531,11.6298828 L340.008789,11.6298828 L335.137695,34.8242188 L337.091797,34.8242188 Z M388.493164,31.2841797 C388.493164,35.4756069 387.105483,38.7371303 384.330078,41.0688477 C381.554674,43.400565 377.68427,44.5664062 372.71875,44.5664062 C370.641917,44.5664062 368.678395,44.335126 366.828125,43.8725586 C364.977855,43.4099912 363.382494,42.7350305 362.041992,41.8476562 L362.041992,31.9355469 C363.627938,32.9362029 365.445139,33.7763638 367.493652,34.4560547 C369.542165,35.1357456 371.397127,35.4755859 373.058594,35.4755859 C374.455736,35.4755859 375.513017,35.1829456 376.230469,34.5976562 C376.94792,34.0123669 377.306641,33.181646 377.306641,32.1054688 C377.306641,31.5957006 377.193361,31.1189801 376.966797,30.675293 C376.740233,30.2316059 376.419273,29.7879254 376.003906,29.3442383 C375.58854,28.9005512 374.474618,27.9235102 372.662109,26.4130859 C370.453114,24.6383375 368.848312,22.8258556 367.847656,20.9755859 C366.847,19.1253163 366.34668,17.0957142 366.34668,14.8867188 C366.34668,12.4133991 366.965,10.1902768 368.20166,8.21728516 C369.43832,6.24429352 371.184722,4.71501194 373.440918,3.62939453 C375.697114,2.54377712 378.222317,2.00097656 381.016602,2.00097656 C385.528994,2.00097656 389.588198,3.01105761 393.194336,5.03125 L389.371094,13.4423828 C386.142562,11.7809162 383.395519,10.9501953 381.129883,10.9501953 C379.921543,10.9501953 378.991702,11.2145156 378.340332,11.7431641 C377.688962,12.2718125 377.363281,13.0458933 377.363281,14.0654297 C377.363281,14.9905645 377.679522,15.8543254 378.312012,16.6567383 C378.944502,17.4591511 380.148103,18.5305923 381.922852,19.8710938 C384.150727,21.5136801 385.802729,23.2412019 386.878906,25.0537109 C387.955084,26.86622 388.493164,28.9430221 388.493164,31.2841797 Z"/>
    <rect width="391" height="2" y="62" fill="#F37125"/>
  </g>
</svg>
